<?xml version="1.0" encoding="utf-8"?>
<!-- Generator: Adobe Illustrator 24.1.3, SVG Export Plug-In . SVG Version: 6.00 Build 0)  -->
<svg version="1.1" id="Layer_1" xmlns="http://www.w3.org/2000/svg" xmlns:xlink="http://www.w3.org/1999/xlink" x="0px" y="0px"
	 viewBox="0 0 512 512" style="enable-background:new 0 0 512 512;" xml:space="preserve">
<style type="text/css">
	.st0{fill:#E4E5E6;}
	.st1{fill:#E5E0DE;}
	.st2{fill:#FFFFFF;}
	.st3{fill:#FFF9D5;}
	.st4{fill:#C4C6C8;}
	.st5{fill:#F3D01D;}
</style>
<g>
	<path class="st0" d="M89.9,5c-22.1,0-40,17.9-40,40v360c0-22.1,17.9-40,40-40h280V5H89.9z"/>
	<path class="st1" d="M116,10h260v360H116L116,10z"/>
	<path class="st2" d="M156,50h180v120H156L156,50z"/>
	<path class="st2" d="M336,410c0-22.1,17.9-40,40-40H96c-22.1,0-40,17.9-40,40s17.9,40,40,40h280C353.9,450,336,432.1,336,410z"/>
	<g>
		<path class="st2" d="M0,0"/>
	</g>
	<circle class="st3" cx="328" cy="176" r="80"/>
	<g>
		<path class="st4" d="M406,158.4c-4.6-20.4-16.9-37.8-33.8-49c-9.6,5-16.2,15-16.2,26.6c0,16.6,13.4,30,30,30
			C393.7,166,400.7,163.1,406,158.4z"/>
		<circle class="st4" cx="336" cy="186" r="10"/>
		<circle class="st4" cx="316" cy="166" r="5"/>
		<path class="st4" d="M196,410v92l-30-20l-30,20v-92"/>
	</g>
	<path class="st5" d="M454.4,203.2c-8.1-10.2-20.8-21.6-36.6-33c-1.6-25.2-13.6-47.6-31.8-62.9V10c0-5.5-4.5-10-10-10H96
		C68.4,0,46,22.4,46,50v360c0,27.6,22.4,50,50,50h30v42c0,3.7,2,7.1,5.3,8.8c3.3,1.7,7.2,1.5,10.3-0.5L166,494l24.5,16.3
		c1.7,1.1,3.6,1.7,5.5,1.7c1.6,0,3.2-0.4,4.7-1.2c3.3-1.7,5.3-5.1,5.3-8.8v-42h170c5.5,0,10-4.5,10-10s-4.5-10-10-10
		c-16.5,0-30-13.5-30-30s13.5-30,30-30c5.5,0,10-4.5,10-10V249.7c6.3,1.5,12.4,2.7,18.2,3.7c8.7,1.4,16.5,2.1,23.4,2.1
		c19.2,0,31.4-5.4,36.4-16C468.6,229.3,465.4,217.1,454.4,203.2L454.4,203.2z M398,176c0,3.4-0.3,6.7-0.7,10H366
		c-5.5,0-10,4.5-10,10s4.5,10,10,10h25.2c-3.7,7.7-8.7,14.6-14.8,20.5c-19.2-5.6-40-13.5-61.1-23.3c-11.7-5.4-22.9-11.2-33.4-17.2
		H296c5.5,0,10-4.5,10-10s-4.5-10-10-10h-37.3c1-7.1,3.1-13.8,6-20H316c5.5,0,10-4.5,10-10s-4.5-10-10-10H279
		c12.6-12.4,29.9-20,48.9-20C366.6,106,398,137.4,398,176L398,176z M326,86c-19.1,0.4-36.8,6.8-51.2,17.5c-19-4.8-35.8-7.2-48.9-6.8
		c-17.7,0.5-29.1,5.9-33.8,16c-6.4,13.7,2.3,30.4,19.6,47.4H166V60h160V86z M239.8,158c-2.4-1.9-4.7-3.8-6.9-5.7
		c-21.6-18.8-23.7-29.1-22.7-31.2c1.6-3.4,15.7-7.5,47.4-1C248.9,130.9,242.7,143.9,239.8,158L239.8,158z M354.8,240.6
		c-8.3,3.4-17.3,5.4-26.8,5.4c-31.3,0-57.8-20.6-66.8-49c14.4,8.7,30,17,45.6,24.3C323.1,228.9,339.3,235.4,354.8,240.6L354.8,240.6
		z M366,94.4c-6.3-3-13-5.2-20-6.6V50c0-5.5-4.5-10-10-10H156c-5.5,0-10,4.5-10,10v120c0,5.5,4.5,10,10,10h79.6
		c0.9,0.6,1.7,1.3,2.6,1.9c3,46.9,42.2,84.1,89.8,84.1c13.6,0,26.5-3,38-8.4V360H126V20h240L366,94.4z M96,20h10v340H96
		c-11.2,0-21.6,3.7-30,10V50C66,33.5,79.4,20,96,20L96,20z M186,483.3l-14.5-9.6c-3.4-2.2-7.7-2.2-11.1,0l-14.5,9.6V420h40V483.3z
		 M336,440H206v-20h90c5.5,0,10-4.5,10-10s-4.5-10-10-10H96c-5.5,0-10,4.5-10,10s4.5,10,10,10h30v20H96c-16.5,0-30-13.5-30-30
		s13.5-30,30-30h240c-6.3,8.4-10,18.8-10,30S329.7,431.6,336,440z M445.8,230.9c-1,2.1-10.2,7.2-38.5,2.7c-2.9-0.5-5.9-1-8.9-1.6
		c8.7-10.9,14.9-23.8,17.8-38C441.4,214.1,447.4,227.5,445.8,230.9z"/>
</g>
</svg>
